# xmcd CD database file generated by OrangeCD 5.2
#
# Track frame offsets:
#	150
#	21844
#	32481
#	59556
#	74922
#	88843
#	97609
#	109260
#	122275
#	158067
#	185435
#	191925
#	202881
#	215117
#	250670
#	269742
#	282059
#	290568
#	302004
#	308369
#
# Disc length: 4307 seconds
#
# Revision: 0
# Processed by: cddbd v1.5.1PL0 Copyright (c) Steve Scherf et al.
# Submitted via: OrangeCD 5.2
#
DISCID=2410d114
DTITLE=Johnny Cash - The ABC Show Series Volume 1
DYEAR=2000
DGENRE=Country
TTITLE0=I Walk The Line/Big River/Ring Of Fire/Orange Blossom Special/Folsom Pr
TTITLE0=ison Blues
TTITLE1=Johnny Cash and Joni Mitchell - I Still Miss Someone
TTITLE2=Ride This Train: The Wall/Greystone Chapel/Folsom Prison Blues
TTITLE3=Johnny Cash and Bob Dylan - Girl From The North Country
TTITLE4=Don't Take Your Guns To Town
TTITLE5=Dirty Old Egg-Sucking Dogg
TTITLE6=Johnny Cash and June Carter Cash - It Ain't Me Babe
TTITLE7=Johnny Cash and Jeannie C. Riley - Bad News
TTITLE8=The Legend Of John Henry's Hammer
TTITLE9=I've Been Everywhere/By The Time I Get To Phoenix/Folsom Prison Blues/G
TTITLE9=alveston/Abeline/Back In Arkansas
TTITLE10=I Got Stripes
TTITLE11=Ring Of Fire
TTITLE12=Johnny Cash and Joni Mitchell - The Long Black Veil
TTITLE13=Ride This Train: As Long As The Grass Shall Grow/The Ballad Of Ira Hay
TTITLE13=es
TTITLE14=Johnny Cash and Ed Ames - Love Of The Common People
TTITLE15=Johnny Cash and The Monkees - Everybody Loves A Nut
TTITLE16=Frankie's Man Johnny
TTITLE17=Sing It Pretty Sue
TTITLE18=The Rebel Johnny Yuma
TTITLE19=Lead Me Father
EXTD=
EXTT0=
EXTT1=
EXTT2=
EXTT3=
EXTT4=
EXTT5=
EXTT6=
EXTT7=
EXTT8=
EXTT9=
EXTT10=
EXTT11=
EXTT12=
EXTT13=
EXTT14=
EXTT15=
EXTT16=
EXTT17=
EXTT18=
EXTT19=
PLAYORDER=
